<?xml version="1.0" encoding="UTF-8"?>
<svg id="Layer_2" data-name="Layer 2" xmlns="http://www.w3.org/2000/svg" viewBox="0 0 696.46 237.66">
  <defs>
    <style>
      .cls-1 {
        fill: #00853e;
      }

      .cls-2 {
        fill: #ed1c24;
      }
    </style>
  </defs>
  <g id="Layer_1-2" data-name="Layer 1">
    <g>
      <g>
        <path class="cls-2" d="m15.31,203.22H2.64v-3.93h29.64v3.93h-12.67v33.79h-4.31v-33.79Z"/>
        <path class="cls-2" d="m40.26,199.29h4.26v16.76h21.77v-16.76h4.26v37.73h-4.26v-16.98h-21.77v16.98h-4.26v-37.73Z"/>
        <path class="cls-2" d="m81.21,199.29h27.27v3.88h-23.01v12.88h20.59v3.88h-20.59v13.2h23.28v3.88h-27.54v-37.73Z"/>
        <path class="cls-2" d="m131,231.51l2.64-3.13c3.93,3.56,7.71,5.34,12.93,5.34s8.41-2.7,8.41-6.41v-.11c0-3.5-1.89-5.5-9.81-7.17-8.68-1.89-12.66-4.69-12.66-10.89v-.11c0-5.93,5.23-10.29,12.4-10.29,5.5,0,9.43,1.56,13.26,4.63l-2.48,3.29c-3.5-2.86-7.01-4.1-10.89-4.1-4.9,0-8.03,2.7-8.03,6.09v.11c0,3.56,1.94,5.55,10.24,7.33,8.41,1.83,12.29,4.9,12.29,10.67v.11c0,6.47-5.39,10.67-12.88,10.67-5.98,0-10.89-1.99-15.41-6.04Z"/>
        <path class="cls-2" d="m167.97,199.29h4.31l13.74,20.59,13.74-20.59h4.31v37.73h-4.26v-30.56l-13.74,20.21h-.22l-13.74-20.16v30.5h-4.15v-37.73Z"/>
        <path class="cls-2" d="m228.71,199.02h3.99l17.19,38h-4.58l-4.42-9.97h-20.53l-4.47,9.97h-4.37l17.19-38Zm10.51,24.2l-8.57-19.24-8.62,19.24h17.19Z"/>
        <path class="cls-2" d="m257.32,199.29h16.22c4.63,0,8.35,1.4,10.73,3.77,1.83,1.83,2.91,4.47,2.91,7.44v.11c0,6.25-4.31,9.92-10.24,10.99l11.59,15.41h-5.23l-10.94-14.66h-10.78v14.66h-4.26v-37.73Zm15.84,19.24c5.66,0,9.7-2.91,9.7-7.76v-.11c0-4.63-3.56-7.44-9.65-7.44h-11.64v15.31h11.59Z"/>
        <path class="cls-2" d="m305.93,203.22h-12.67v-3.93h29.64v3.93h-12.67v33.79h-4.31v-33.79Z"/>
        <path class="cls-2" d="m357.01,203.22h-12.67v-3.93h29.64v3.93h-12.66v33.79h-4.31v-33.79Z"/>
        <path class="cls-2" d="m381.96,199.29h27.27v3.88h-23.01v12.88h20.59v3.88h-20.59v13.2h23.28v3.88h-27.54v-37.73Z"/>
        <path class="cls-2" d="m416.4,218.26v-.11c0-10.67,7.98-19.51,19.08-19.51,6.84,0,10.94,2.43,14.71,5.98l-2.91,3.13c-3.18-3.02-6.74-5.17-11.86-5.17-8.35,0-14.61,6.79-14.61,15.47v.11c0,8.73,6.31,15.58,14.61,15.58,5.17,0,8.57-1.99,12.18-5.44l2.8,2.75c-3.93,3.99-8.25,6.63-15.09,6.63-10.89,0-18.92-8.57-18.92-19.4Z"/>
        <path class="cls-2" d="m457.84,199.29h4.26v16.76h21.77v-16.76h4.26v37.73h-4.26v-16.98h-21.77v16.98h-4.26v-37.73Z"/>
        <path class="cls-2" d="m512.48,231.51l2.64-3.13c3.93,3.56,7.71,5.34,12.93,5.34s8.41-2.7,8.41-6.41v-.11c0-3.5-1.89-5.5-9.81-7.17-8.68-1.89-12.67-4.69-12.67-10.89v-.11c0-5.93,5.23-10.29,12.4-10.29,5.5,0,9.43,1.56,13.26,4.63l-2.48,3.29c-3.5-2.86-7.01-4.1-10.89-4.1-4.9,0-8.03,2.7-8.03,6.09v.11c0,3.56,1.94,5.55,10.24,7.33,8.41,1.83,12.29,4.9,12.29,10.67v.11c0,6.47-5.39,10.67-12.88,10.67-5.98,0-10.89-1.99-15.41-6.04Z"/>
        <path class="cls-2" d="m558.61,203.22h-12.66v-3.93h29.64v3.93h-12.66v33.79h-4.31v-33.79Z"/>
        <path class="cls-2" d="m579.36,218.26v-.11c0-10.4,7.81-19.51,19.29-19.51s19.19,9,19.19,19.4v.11c0,10.4-7.82,19.51-19.29,19.51s-19.19-9-19.19-19.4Zm34.06,0v-.11c0-8.57-6.25-15.58-14.87-15.58s-14.77,6.9-14.77,15.47v.11c0,8.57,6.25,15.58,14.87,15.58s14.77-6.9,14.77-15.47Z"/>
        <path class="cls-2" d="m626.83,199.29h16.22c4.63,0,8.35,1.4,10.72,3.77,1.83,1.83,2.91,4.47,2.91,7.44v.11c0,6.25-4.31,9.92-10.24,10.99l11.59,15.41h-5.23l-10.94-14.66h-10.78v14.66h-4.26v-37.73Zm15.84,19.24c5.66,0,9.7-2.91,9.7-7.76v-.11c0-4.63-3.56-7.44-9.65-7.44h-11.64v15.31h11.59Z"/>
        <path class="cls-2" d="m665.79,199.29h27.27v3.88h-23.01v12.88h20.59v3.88h-20.59v13.2h23.28v3.88h-27.54v-37.73Z"/>
      </g>
      <g>
        <path class="cls-1" d="m0,49.03v-.27C0,21.43,21.03,0,49.43,0c19.15,0,31.48,8.04,39.78,19.56l-19.56,15.14c-5.36-6.7-11.52-10.98-20.5-10.98-13.13,0-22.37,11.12-22.37,24.78v.27c0,14.07,9.24,25.05,22.37,25.05,9.78,0,15.54-4.55,21.17-11.39l19.56,13.93c-8.84,12.19-20.76,21.17-41.53,21.17C21.57,97.52,0,77.03,0,49.03"/>
        <polygon class="cls-1" points="107.57 1.87 182.99 1.87 182.99 23.98 133.29 23.98 133.29 38.18 178.3 38.18 178.3 58.67 133.29 58.67 133.29 73.54 183.66 73.54 183.66 95.64 107.57 95.64 107.57 1.87"/>
        <polygon class="cls-1" points="203.62 1.87 227.87 1.87 266.44 51.44 266.44 1.87 292.16 1.87 292.16 95.64 269.39 95.64 229.34 44.21 229.34 95.64 203.62 95.64 203.62 1.87"/>
        <polygon class="cls-1" points="338.52 24.65 310.39 24.65 310.39 1.87 392.64 1.87 392.64 24.65 364.5 24.65 364.5 95.64 338.52 95.64 338.52 24.65"/>
        <path class="cls-1" d="m410.72,1.87h44.34c14.33,0,24.25,3.75,30.54,10.18,5.49,5.36,8.31,12.59,8.31,21.84v.27c0,14.33-7.64,23.85-19.29,28.8l22.37,32.69h-30.01l-18.89-28.4h-11.39v28.4h-25.99V1.87Zm43.14,45.01c8.84,0,13.93-4.29,13.93-11.12v-.27c0-7.37-5.36-11.12-14.07-11.12h-17.01v22.5h17.15Z"/>
        <path class="cls-1" d="m544.28,1.2h25.05l39.92,94.44h-27.86l-6.83-16.74h-36.17l-6.7,16.74h-27.33L544.28,1.2Zm22.77,57.47l-10.45-26.66-10.58,26.66h21.03Z"/>
        <polygon class="cls-1" points="625.06 1.87 651.05 1.87 651.05 72.87 696.46 72.87 696.46 95.64 625.06 95.64 625.06 1.87"/>
        <g>
          <path class="cls-1" d="m4.06,143.57v-.21c0-21.8,16.78-38.9,39.43-38.9,15.28,0,25.11,6.41,31.74,15.6l-15.6,12.07c-4.27-5.34-9.19-8.76-16.35-8.76-10.47,0-17.85,8.87-17.85,19.77v.21c0,11.22,7.37,19.98,17.85,19.98,7.8,0,12.4-3.63,16.88-9.08l15.6,11.11c-7.05,9.72-16.56,16.88-33.13,16.88-21.37,0-38.58-16.35-38.58-38.68Z"/>
          <path class="cls-1" d="m80.03,143.57v-.21c0-21.48,17.31-38.9,40.39-38.9s40.18,17.2,40.18,38.68v.21c0,21.48-17.31,38.9-40.39,38.9s-40.18-17.2-40.18-38.68Zm59.41,0v-.21c0-10.79-7.8-20.2-19.23-20.2s-18.91,9.19-18.91,19.98v.21c0,10.79,7.8,20.2,19.13,20.2s19.02-9.19,19.02-19.98Z"/>
          <path class="cls-1" d="m171.39,105.96h21.91l17.85,28.96,17.85-28.96h21.91v74.8h-20.62v-42.96l-19.13,29.28h-.43l-19.02-29.07v42.74h-20.3v-74.8Z"/>
          <path class="cls-1" d="m264.14,105.96h32.06c18.91,0,31.1,9.72,31.1,26.29v.21c0,17.63-13.57,26.93-32.16,26.93h-10.26v21.37h-20.73v-74.8Zm30.56,37.19c7.37,0,11.86-3.85,11.86-9.72v-.21c0-6.41-4.49-9.83-11.97-9.83h-9.72v19.77h9.83Z"/>
          <path class="cls-1" d="m335.09,147.95v-41.99h21.05v41.57c0,10.79,5.45,15.92,13.79,15.92s13.78-4.92,13.78-15.39v-42.1h21.05v41.46c0,24.15-13.78,34.73-35.05,34.73s-34.62-10.79-34.62-34.19Z"/>
          <path class="cls-1" d="m435.32,124.12h-22.44v-18.17h65.61v18.17h-22.44v56.63h-20.73v-56.63Z"/>
          <path class="cls-1" d="m487.57,105.96h60.16v17.63h-39.64v11.33h35.9v16.35h-35.9v11.86h40.18v17.63h-60.7v-74.8Z"/>
          <path class="cls-1" d="m558.84,105.96h35.37c11.43,0,19.34,2.99,24.36,8.12,4.38,4.27,6.62,10.04,6.62,17.42v.21c0,11.43-6.09,19.02-15.39,22.97l17.85,26.07h-23.94l-15.07-22.65h-9.08v22.65h-20.73v-74.8Zm34.41,35.9c7.05,0,11.11-3.42,11.11-8.87v-.21c0-5.88-4.27-8.87-11.22-8.87h-13.57v17.95h13.68Z"/>
          <path class="cls-1" d="m630.01,169.64l11.54-13.78c7.37,5.88,15.6,8.98,24.26,8.98,5.56,0,8.55-1.92,8.55-5.13v-.21c0-3.1-2.46-4.81-12.61-7.16-15.92-3.63-28.21-8.12-28.21-23.51v-.21c0-13.89,11.01-23.94,28.96-23.94,12.72,0,22.65,3.42,30.78,9.94l-10.37,14.64c-6.84-4.81-14.32-7.37-20.94-7.37-5.02,0-7.48,2.14-7.48,4.81v.21c0,3.42,2.57,4.92,12.93,7.27,17.2,3.74,27.89,9.3,27.89,23.29v.21c0,15.28-12.08,24.36-30.24,24.36-13.25,0-25.86-4.17-35.05-12.4Z"/>
        </g>
      </g>
    </g>
  </g>
</svg>